<mxfile host="app.diagrams.net" modified="2022-04-12T10:53:16.115Z" agent="5.0 (Windows NT 10.0; Win64; x64) AppleWebKit/537.36 (KHTML, like Gecko) Chrome/100.0.4896.75 Safari/537.36 Edg/100.0.1185.36" etag="bOm-DcAleo9o1VOWvjfy" version="17.4.3" type="github">
  <diagram id="yOn-xhExWEpng2JPLzGH" name="Page-1">
    <mxGraphModel dx="1038" dy="579" grid="1" gridSize="10" guides="1" tooltips="1" connect="1" arrows="1" fold="1" page="1" pageScale="1" pageWidth="827" pageHeight="1169" math="0" shadow="0">
      <root>
        <mxCell id="0" />
        <mxCell id="1" parent="0" />
        <mxCell id="2X6CKyZINtei1i9X0Oyo-2" value="iterate_dir" style="swimlane;" vertex="1" parent="1">
          <mxGeometry x="40" y="200" width="80" height="80" as="geometry" />
        </mxCell>
        <mxCell id="2X6CKyZINtei1i9X0Oyo-3" value="down_read_killable" style="swimlane;" vertex="1" parent="1">
          <mxGeometry x="200" y="120" width="120" height="80" as="geometry" />
        </mxCell>
        <mxCell id="2X6CKyZINtei1i9X0Oyo-5" value="lock_acquire" style="swimlane;startSize=23;" vertex="1" parent="1">
          <mxGeometry x="400" width="80" height="80" as="geometry" />
        </mxCell>
        <mxCell id="2X6CKyZINtei1i9X0Oyo-27" value="__lock_acquire" style="swimlane;startSize=23;" vertex="1" parent="1">
          <mxGeometry x="520" width="120" height="80" as="geometry" />
        </mxCell>
        <mxCell id="2X6CKyZINtei1i9X0Oyo-28" value="LOCK_CONTEDED_RETURN" style="swimlane;" vertex="1" parent="1">
          <mxGeometry x="400" y="200" width="200" height="80" as="geometry" />
        </mxCell>
        <mxCell id="2X6CKyZINtei1i9X0Oyo-29" value="__down_read_trylock" style="swimlane;" vertex="1" parent="1">
          <mxGeometry x="720" width="160" height="80" as="geometry" />
        </mxCell>
        <mxCell id="2X6CKyZINtei1i9X0Oyo-30" value="lock_conteded" style="swimlane;startSize=23;" vertex="1" parent="1">
          <mxGeometry x="720" y="120" width="120" height="80" as="geometry" />
        </mxCell>
        <mxCell id="2X6CKyZINtei1i9X0Oyo-31" value="__lock_contended" style="swimlane;startSize=23;" vertex="1" parent="1">
          <mxGeometry x="880" y="120" width="120" height="80" as="geometry" />
        </mxCell>
        <mxCell id="2X6CKyZINtei1i9X0Oyo-32" value="__down_read_killable" style="swimlane;" vertex="1" parent="1">
          <mxGeometry x="720" y="240" width="160" height="80" as="geometry" />
        </mxCell>
        <mxCell id="2X6CKyZINtei1i9X0Oyo-33" value="lock_acquired" style="swimlane;startSize=23;" vertex="1" parent="1">
          <mxGeometry x="720" y="360" width="120" height="80" as="geometry" />
        </mxCell>
        <mxCell id="2X6CKyZINtei1i9X0Oyo-34" value="__lock_acquired" style="swimlane;startSize=23;" vertex="1" parent="1">
          <mxGeometry x="880" y="360" width="120" height="80" as="geometry" />
        </mxCell>
        <mxCell id="2X6CKyZINtei1i9X0Oyo-36" value="" style="endArrow=classic;html=1;rounded=0;entryX=0;entryY=0.5;entryDx=0;entryDy=0;" edge="1" parent="1" target="2X6CKyZINtei1i9X0Oyo-3">
          <mxGeometry width="50" height="50" relative="1" as="geometry">
            <mxPoint x="120" y="240" as="sourcePoint" />
            <mxPoint x="170" y="190" as="targetPoint" />
          </mxGeometry>
        </mxCell>
        <mxCell id="2X6CKyZINtei1i9X0Oyo-37" value="" style="endArrow=classic;html=1;rounded=0;exitX=1;exitY=0.5;exitDx=0;exitDy=0;entryX=0;entryY=0.5;entryDx=0;entryDy=0;" edge="1" parent="1" source="2X6CKyZINtei1i9X0Oyo-3" target="2X6CKyZINtei1i9X0Oyo-5">
          <mxGeometry width="50" height="50" relative="1" as="geometry">
            <mxPoint x="320" y="170" as="sourcePoint" />
            <mxPoint x="370" y="120" as="targetPoint" />
          </mxGeometry>
        </mxCell>
        <mxCell id="2X6CKyZINtei1i9X0Oyo-38" value="" style="endArrow=classic;html=1;rounded=0;entryX=0;entryY=0.5;entryDx=0;entryDy=0;exitX=1;exitY=0.5;exitDx=0;exitDy=0;" edge="1" parent="1" source="2X6CKyZINtei1i9X0Oyo-5" target="2X6CKyZINtei1i9X0Oyo-27">
          <mxGeometry width="50" height="50" relative="1" as="geometry">
            <mxPoint x="480" y="80" as="sourcePoint" />
            <mxPoint x="530" y="30" as="targetPoint" />
          </mxGeometry>
        </mxCell>
        <mxCell id="2X6CKyZINtei1i9X0Oyo-39" value="" style="endArrow=classic;html=1;rounded=0;entryX=0;entryY=0.5;entryDx=0;entryDy=0;" edge="1" parent="1" target="2X6CKyZINtei1i9X0Oyo-28">
          <mxGeometry width="50" height="50" relative="1" as="geometry">
            <mxPoint x="320" y="160" as="sourcePoint" />
            <mxPoint x="370" y="110" as="targetPoint" />
          </mxGeometry>
        </mxCell>
        <mxCell id="2X6CKyZINtei1i9X0Oyo-40" value="" style="endArrow=classic;html=1;rounded=0;entryX=0;entryY=0.5;entryDx=0;entryDy=0;" edge="1" parent="1" target="2X6CKyZINtei1i9X0Oyo-29">
          <mxGeometry width="50" height="50" relative="1" as="geometry">
            <mxPoint x="600" y="240" as="sourcePoint" />
            <mxPoint x="650" y="190" as="targetPoint" />
          </mxGeometry>
        </mxCell>
        <mxCell id="2X6CKyZINtei1i9X0Oyo-41" value="" style="endArrow=classic;html=1;rounded=0;entryX=0;entryY=0.5;entryDx=0;entryDy=0;" edge="1" parent="1" target="2X6CKyZINtei1i9X0Oyo-30">
          <mxGeometry width="50" height="50" relative="1" as="geometry">
            <mxPoint x="600" y="240" as="sourcePoint" />
            <mxPoint x="650" y="190" as="targetPoint" />
          </mxGeometry>
        </mxCell>
        <mxCell id="2X6CKyZINtei1i9X0Oyo-42" value="" style="endArrow=classic;html=1;rounded=0;entryX=0;entryY=0.5;entryDx=0;entryDy=0;" edge="1" parent="1" target="2X6CKyZINtei1i9X0Oyo-31">
          <mxGeometry width="50" height="50" relative="1" as="geometry">
            <mxPoint x="840" y="160" as="sourcePoint" />
            <mxPoint x="890" y="110" as="targetPoint" />
          </mxGeometry>
        </mxCell>
        <mxCell id="2X6CKyZINtei1i9X0Oyo-43" value="" style="endArrow=classic;html=1;rounded=0;entryX=0;entryY=0.5;entryDx=0;entryDy=0;" edge="1" parent="1" target="2X6CKyZINtei1i9X0Oyo-32">
          <mxGeometry width="50" height="50" relative="1" as="geometry">
            <mxPoint x="600" y="240" as="sourcePoint" />
            <mxPoint x="650" y="190" as="targetPoint" />
          </mxGeometry>
        </mxCell>
        <mxCell id="2X6CKyZINtei1i9X0Oyo-44" value="" style="endArrow=classic;html=1;rounded=0;entryX=0;entryY=0.5;entryDx=0;entryDy=0;" edge="1" parent="1" target="2X6CKyZINtei1i9X0Oyo-33">
          <mxGeometry width="50" height="50" relative="1" as="geometry">
            <mxPoint x="600" y="240" as="sourcePoint" />
            <mxPoint x="650" y="190" as="targetPoint" />
          </mxGeometry>
        </mxCell>
        <mxCell id="2X6CKyZINtei1i9X0Oyo-45" value="" style="endArrow=classic;html=1;rounded=0;entryX=0;entryY=0.5;entryDx=0;entryDy=0;" edge="1" parent="1" target="2X6CKyZINtei1i9X0Oyo-34">
          <mxGeometry width="50" height="50" relative="1" as="geometry">
            <mxPoint x="840" y="400" as="sourcePoint" />
            <mxPoint x="890" y="350" as="targetPoint" />
          </mxGeometry>
        </mxCell>
      </root>
    </mxGraphModel>
  </diagram>
</mxfile>
